<svg xmlns="http://www.w3.org/2000/svg" width="174" height="67" viewBox="0 0 174 67" fill="none">
  <path d="M150.828 29.0756C150.823 28.9682 150.8 28.964 150.758 29.0631L144.077 45.0563C144.068 45.077 144.054 45.0952 144.037 45.1089C144.019 45.1227 143.998 45.1317 143.975 45.1349C143.953 45.1382 143.931 45.1356 143.91 45.1275C143.889 45.1193 143.871 45.1059 143.857 45.0886L141.566 42.3087C141.51 42.2402 141.474 42.1581 141.46 42.0708C141.447 41.9836 141.457 41.8944 141.489 41.8125L151.593 16.482C151.614 16.4311 151.653 16.3897 151.702 16.3665C151.752 16.3432 151.808 16.3397 151.86 16.3567L154.575 17.2522C154.637 17.2727 154.69 17.3114 154.729 17.3633C154.768 17.4152 154.79 17.4777 154.792 17.5424L155.535 42.3552C155.54 42.5272 155.575 42.5338 155.641 42.375L173.065 0.63032C173.139 0.454787 173.209 0.456578 173.275 0.635693L173.703 1.78024C173.769 1.95458 173.766 2.12772 173.694 2.29968C172.947 4.09561 172.171 5.96378 171.367 7.9042C171.28 8.11734 171.326 8.55797 171.407 8.82664C171.815 10.1975 172.217 11.545 172.612 12.8693C172.657 13.021 172.648 13.1831 172.587 13.3278L155.503 53.9243C155.497 53.9397 155.489 53.9537 155.478 53.9655C155.347 54.1267 155.249 54.141 155.186 54.0085C153.97 51.44 152.765 48.8667 151.57 46.2886C151.446 46.0253 151.534 45.2587 151.52 44.9363C151.289 39.6225 151.059 34.3357 150.828 29.0756Z" fill="black"/>
  <path d="M19.0083 66.4994H18.0447L16.0619 63.0407C16.0008 62.9335 15.9677 62.8127 15.9655 62.6894C15.9633 62.5661 15.9921 62.4442 16.0493 62.3349L28.2775 39.0428C28.2817 39.0348 28.2837 39.0259 28.2833 39.0169C28.2829 39.008 28.28 38.9993 28.2751 38.9917C28.2701 38.9842 28.2633 38.9782 28.2552 38.9743C28.2471 38.9703 28.2381 38.9686 28.2292 38.9693L18.5247 39.5425C18.4614 39.5461 18.4142 39.5754 18.3832 39.6303L10.5666 53.3039C10.5557 53.3233 10.5398 53.3395 10.5206 53.3507C10.5014 53.3619 10.4796 53.3678 10.4573 53.3678C10.4351 53.3678 10.4133 53.3619 10.3941 53.3507C10.3749 53.3395 10.359 53.3233 10.3481 53.3039L8.03033 49.2506C7.99435 49.1879 7.97541 49.1169 7.97541 49.0446C7.97541 48.9723 7.99435 48.9013 8.03033 48.8386L13.162 39.9616C13.1966 39.9007 13.1787 39.8727 13.1083 39.8775L3.10645 40.4775C3.04234 40.4813 2.97844 40.4672 2.92184 40.4368C2.86524 40.4065 2.81817 40.361 2.78583 40.3055L0.0202919 35.5715C0.00738997 35.5493 0.000409761 35.5241 1.74977e-05 35.4984C-0.000374766 35.4726 0.00583417 35.4472 0.0180514 35.4246C0.0302687 35.402 0.048086 35.3828 0.0698017 35.3691C0.0915174 35.3553 0.116406 35.3473 0.14209 35.3458L16.1962 34.538C16.2702 34.5344 16.3258 34.5004 16.3628 34.4359L23.7889 21.622C23.8141 21.5772 23.8558 21.5438 23.9053 21.5289C24.0379 21.4907 24.1418 21.5384 24.217 21.6722C24.9191 22.9284 25.6093 24.1702 26.2876 25.3978C26.3264 25.4677 26.3465 25.5466 26.3459 25.6266C26.3453 25.7066 26.3239 25.7852 26.284 25.8545L21.498 34.1959C21.4941 34.2023 21.492 34.2097 21.4919 34.2173C21.4919 34.2248 21.4939 34.2322 21.4978 34.2387C21.5017 34.2452 21.5072 34.2504 21.5139 34.2539C21.5206 34.2575 21.5281 34.2591 21.5356 34.2586L30.9284 33.7965C30.9989 33.7941 31.0502 33.7613 31.0825 33.698L48.3635 0.778364C48.5259 0.469092 48.6633 0.479839 48.7755 0.810605L49.0388 1.57901C49.1487 1.90022 49.1224 2.21009 48.96 2.50862C47.8232 4.60546 46.6631 6.75485 45.4798 8.95677C45.2398 9.40277 45.3293 9.86668 45.5263 10.3682C45.9753 11.5062 46.4207 12.637 46.8625 13.7606C46.8754 13.7925 46.8812 13.8269 46.8793 13.8613C46.8775 13.8956 46.8681 13.9291 46.8518 13.9595L36.5258 33.4508C36.5224 33.4574 36.5207 33.4649 36.521 33.4723C36.5214 33.4798 36.5236 33.4871 36.5276 33.4934C36.5316 33.4997 36.5371 33.5049 36.5437 33.5084C36.5503 33.512 36.5577 33.5137 36.5652 33.5135L41.8437 33.2484C41.9236 33.2447 42.0025 33.2659 42.0697 33.3093C42.1368 33.3527 42.1887 33.4159 42.2181 33.4902L43.4701 36.6283C43.4897 36.6776 43.4981 36.7304 43.4946 36.7831C43.4912 36.8358 43.4761 36.8869 43.4504 36.9328L38.265 46.0838C38.2101 46.1817 38.2292 46.199 38.3223 46.1357C42.8981 43.0717 47.4906 39.9909 52.0999 36.8934C52.3315 36.7382 52.5178 36.5411 52.6587 36.3023C54.5645 33.0639 56.4685 29.8303 58.3707 26.6014C58.3939 26.562 58.4272 26.5294 58.4672 26.5071C58.5072 26.4848 58.5524 26.4735 58.5981 26.4744C58.6439 26.4753 58.6886 26.4884 58.7276 26.5123C58.7667 26.5362 58.7987 26.57 58.8203 26.6104C59.4973 27.863 60.1744 29.1258 60.8515 30.3987C61.1613 30.9808 61.0933 31.2531 60.7744 31.7814C56.6548 38.5986 52.5417 45.4038 48.4352 52.197C48.3999 52.2551 48.3529 52.3053 48.2972 52.3443C48.2415 52.3834 48.1783 52.4104 48.1116 52.4237C48.0449 52.437 47.9762 52.4363 47.9098 52.4216C47.8434 52.407 47.7808 52.3787 47.7259 52.3385L45.032 50.3682C44.9228 50.2882 44.8471 50.1706 44.8196 50.0382C44.7921 49.9058 44.8148 49.7681 44.8833 49.6518L48.9761 42.6752C49.0537 42.5439 49.0316 42.5248 48.9098 42.6179L36.1461 52.4281C35.8965 52.6203 35.684 52.5857 35.5084 52.3242L32.7178 48.1848C32.6767 48.1241 32.6529 48.0533 32.6488 47.9799C32.6447 47.9064 32.6605 47.833 32.6945 47.7675L37.5915 38.4965C37.6238 38.4356 37.6059 38.4069 37.5378 38.4105L33.8785 38.629C33.8116 38.6326 33.7626 38.6642 33.7316 38.724L19.0083 66.4994Z" fill="black"/>
  <path d="M116.214 41.397C116.303 41.3194 116.289 41.2938 116.175 41.32L108.464 43.0646C108.421 43.0742 108.376 43.0708 108.334 43.0549C108.293 43.0389 108.257 43.0112 108.231 42.9751L106.146 40.0322C105.923 39.7169 106 39.5205 106.379 39.4429L121.871 36.2815C121.93 36.2695 121.991 36.2757 122.046 36.2994C122.101 36.3231 122.147 36.3632 122.179 36.4141L123.775 39.0202C123.843 39.1319 123.871 39.2639 123.854 39.3939C123.836 39.5238 123.774 39.6437 123.678 39.7331L109.413 53.0145C109.363 53.0618 109.303 53.098 109.237 53.1208C109.172 53.1436 109.103 53.1525 109.034 53.1469C108.964 53.1414 108.897 53.1214 108.836 53.0885C108.775 53.0555 108.721 53.0102 108.679 52.9554L98.9457 40.3904C98.8492 40.266 98.7997 40.1114 98.8059 39.9539C98.8122 39.7963 98.8737 39.6458 98.9797 39.5289L117.343 19.3408C117.394 19.2847 117.462 19.2608 117.547 19.2691C117.585 19.2739 117.626 19.3103 117.67 19.3784C118.873 21.24 120.067 23.1016 121.253 24.9632C121.258 24.9717 121.265 24.9787 121.274 24.9838C121.283 24.9888 121.292 24.9917 121.302 24.9923C121.312 24.9928 121.322 24.9909 121.331 24.9868C121.341 24.9827 121.349 24.9764 121.355 24.9686L129.874 14.0497C129.884 14.0366 129.898 14.0269 129.914 14.0216C129.929 14.0163 129.946 14.0157 129.963 14.0198C129.979 14.024 129.993 14.0328 130.004 14.0451C130.016 14.0574 130.023 14.0727 130.026 14.0891L130.345 16.3442C130.354 16.4088 130.34 16.4743 130.305 16.5287L121.049 31.0424C121.025 31.0793 120.993 31.1099 120.955 31.1317C120.917 31.1536 120.875 31.1659 120.831 31.1676C120.787 31.1694 120.744 31.1605 120.705 31.1419C120.665 31.1232 120.631 31.0952 120.604 31.0603L117.026 26.3281C116.993 26.2851 116.959 26.2833 116.924 26.3227L104.28 39.9211C104.228 39.9761 104.225 40.0334 104.271 40.0931L109.626 47.0929C109.63 47.0977 109.635 47.1016 109.641 47.1044C109.646 47.1073 109.652 47.109 109.658 47.1095C109.665 47.11 109.671 47.1093 109.677 47.1073C109.683 47.1054 109.688 47.1023 109.693 47.0983L116.214 41.397Z" fill="black"/>
  <path d="M136.168 36.8781C136.172 36.8029 136.14 36.7802 136.071 36.81L128.962 39.8657C128.903 39.8908 128.859 39.9308 128.828 39.9858L126.567 43.9747C126.483 44.1237 126.354 44.2428 126.196 44.315L120.604 46.862C120.302 46.9993 120.235 46.9247 120.402 46.6381L137.284 17.5945C137.327 17.5191 137.398 17.4627 137.481 17.4365C137.564 17.4103 137.654 17.4162 137.733 17.453L141.534 19.2155C141.61 19.2509 141.674 19.3087 141.717 19.3813C141.76 19.4539 141.78 19.5378 141.774 19.6221L140.303 41.4276C140.302 41.4487 140.296 41.4691 140.285 41.4873C140.274 41.5054 140.259 41.5208 140.242 41.5321C140.224 41.5435 140.204 41.5505 140.183 41.5525C140.162 41.5546 140.14 41.5517 140.121 41.5441L136.236 40.0538C136.152 40.0221 136.081 39.9642 136.033 39.8887C135.985 39.8132 135.963 39.7241 135.969 39.6347L136.168 36.8781ZM131.855 34.8057L136.374 33.2188C136.407 33.2068 136.425 33.1824 136.427 33.1453L136.943 25.8482C136.952 25.7168 136.924 25.7085 136.859 25.8231L131.801 34.743C131.761 34.8123 131.779 34.8332 131.855 34.8057Z" fill="black"/>
  <path d="M93.4523 40.1488L87.5003 42.1137C87.4408 42.1335 87.3889 42.1717 87.3516 42.2229L85.1342 45.2518C85.0667 45.3445 84.966 45.4076 84.853 45.4279C84.7399 45.4483 84.6232 45.4243 84.527 45.361L81.928 43.6487C81.8812 43.6177 81.8413 43.5774 81.8106 43.5303C81.78 43.4833 81.7593 43.4305 81.7499 43.3753C81.7405 43.32 81.7426 43.2635 81.756 43.2091C81.7693 43.1548 81.7938 43.1039 81.8277 43.0594L97.1367 22.9609C97.4281 22.5788 97.7338 22.5674 98.0538 22.9268C98.9028 23.8809 99.7804 24.8673 100.687 25.8858C101.088 26.3354 101.054 26.8871 100.911 27.5032C98.8473 36.4065 96.7838 45.3085 94.7204 54.2094C94.7063 54.2657 94.678 54.3176 94.6381 54.3598C94.5246 54.4732 94.4165 54.4679 94.3139 54.3437C93.3084 53.1412 92.3281 51.9447 91.3728 50.7542C91.3119 50.6781 91.269 50.5892 91.2472 50.494C91.2255 50.3987 91.2256 50.2997 91.2474 50.2043L93.5544 40.2419C93.5759 40.15 93.5419 40.1189 93.4523 40.1488ZM94.3962 36.3945C94.4119 36.3902 94.4262 36.3818 94.4375 36.3702C94.4488 36.3585 94.4568 36.344 94.4607 36.3283L95.7092 30.9387C95.739 30.8121 95.7151 30.8014 95.6375 30.9064L91.0127 37.2238C90.953 37.305 90.9716 37.3325 91.0683 37.3062L94.3962 36.3945Z" fill="black"/>
  <path d="M68.8149 36.1414C68.8065 36.1435 68.7989 36.148 68.793 36.1544C68.7872 36.1608 68.7834 36.1688 68.7821 36.1775C68.7808 36.1862 68.782 36.1952 68.7856 36.2035C68.7892 36.2117 68.795 36.2188 68.8024 36.2238L89.3684 49.8402C89.4865 49.9178 89.574 50.035 89.6156 50.1715L91.6056 56.6913C91.6111 56.7085 91.6092 56.7274 91.6002 56.7443C91.5912 56.7612 91.5759 56.7749 91.5572 56.7827C91.5393 56.7899 91.5118 56.7815 91.4748 56.7576C82.4247 50.817 73.3692 44.8638 64.3084 38.898C64.303 38.8945 64.297 38.8921 64.2907 38.891C64.2844 38.8899 64.2779 38.8901 64.2717 38.8916C64.2655 38.8932 64.2597 38.8959 64.2546 38.8998C64.2495 38.9037 64.2452 38.9086 64.2421 38.9141L58.8006 48.4699C58.7535 48.5535 58.6865 48.6248 58.6053 48.6777L53.9645 51.6725C53.722 51.8291 53.5205 52.041 53.377 52.2905L50.7189 56.8902C50.5768 57.1362 50.3702 57.3003 50.0991 57.3827L49.2072 57.6514C48.9086 57.741 48.8346 57.6496 48.9851 57.3774L64.3764 29.2956C64.3871 29.2766 64.3919 29.2547 64.3903 29.2328C64.3887 29.2109 64.3808 29.1898 64.3675 29.1721L61.4963 25.2548C61.469 25.2174 61.4525 25.1733 61.4483 25.1273C61.4441 25.0812 61.4524 25.0349 61.4725 24.9932C61.4925 24.9515 61.5234 24.916 61.562 24.8905C61.6005 24.865 61.6453 24.8504 61.6915 24.8482L86.9898 23.847C87.0642 23.8443 87.1378 23.8614 87.203 23.8967C87.2683 23.932 87.3227 23.9841 87.3605 24.0476L90.4019 29.1953C90.4564 29.2876 90.4889 29.3911 90.497 29.4979C90.5051 29.6048 90.4885 29.712 90.4485 29.8114C90.4085 29.9108 90.3462 29.9996 90.2663 30.0711C90.1865 30.1425 90.0913 30.1947 89.9881 30.2235L68.8149 36.1414ZM68.3009 32.0021C68.2519 32.0845 68.2734 32.1131 68.3653 32.0881L83.0528 28.0669C83.3036 27.9977 83.2988 27.972 83.0385 27.9899L70.2855 28.8246C70.2198 28.8293 70.1702 28.8598 70.1368 28.9159L68.3009 32.0021Z" fill="black"/>
  <path d="M136.374 33.2185L131.855 34.8054C131.779 34.8329 131.761 34.812 131.801 34.7428L136.859 25.8228C136.924 25.7082 136.952 25.7165 136.943 25.8479L136.427 33.145C136.425 33.1821 136.407 33.2065 136.374 33.2185Z" fill="white"/>
  <path d="M68.3008 32.0026L70.1367 28.9164C70.1702 28.8603 70.2197 28.8298 70.2854 28.8251L83.0384 27.9904C83.2987 27.9725 83.3035 27.9981 83.0527 28.0674L68.3653 32.0885C68.2733 32.1136 68.2518 32.085 68.3008 32.0026Z" fill="white"/>
  <path d="M94.3962 36.3941L91.0682 37.3058C90.9715 37.332 90.953 37.3046 91.0127 37.2234L95.6375 30.906C95.7151 30.8009 95.739 30.8116 95.7091 30.9382L94.4607 36.3278C94.4568 36.3436 94.4488 36.358 94.4374 36.3697C94.4261 36.3813 94.4119 36.3898 94.3962 36.3941Z" fill="white"/>
</svg>