<svg xmlns="http://www.w3.org/2000/svg" width="255" height="23" viewBox="0 0 255 23" fill="none">
  <path d="M34.1696 5.61321L38.4337 0.923203C38.4397 0.916688 38.447 0.911474 38.455 0.907885C38.4631 0.904296 38.4718 0.90241 38.4807 0.902344L46.1745 0.921465C46.1868 0.921518 46.1988 0.925076 46.2091 0.931717C46.2194 0.938359 46.2276 0.947809 46.2327 0.958953C46.2378 0.970097 46.2396 0.98247 46.2379 0.994615C46.2363 1.00676 46.2311 1.01817 46.2232 1.0275L42.0025 5.78357C41.9965 5.79062 41.9891 5.79629 41.9807 5.80019C41.9723 5.80409 41.9631 5.80613 41.9538 5.80617L34.2165 5.72099C34.2041 5.7209 34.192 5.7172 34.1816 5.71034C34.1712 5.70348 34.163 5.69376 34.1581 5.68235C34.1531 5.67095 34.1515 5.65834 34.1536 5.64607C34.1556 5.6338 34.1612 5.62239 34.1696 5.61321Z" fill="black"/>
  <path d="M193.362 1.05209L184.876 6.8894C184.863 6.89821 184.849 6.90307 184.834 6.90331L175.381 6.81813C175.366 6.81789 175.351 6.81283 175.338 6.80368C175.326 6.79452 175.317 6.78173 175.312 6.76711C175.308 6.75249 175.308 6.73679 175.313 6.72224C175.317 6.70768 175.327 6.69501 175.339 6.68601L183.624 0.930411C183.636 0.921598 183.651 0.916741 183.666 0.916504L193.32 0.918241C193.336 0.917942 193.352 0.922778 193.365 0.932024C193.377 0.941269 193.387 0.954425 193.391 0.969514C193.396 0.984602 193.396 1.00081 193.391 1.0157C193.385 1.03059 193.375 1.04336 193.362 1.05209Z" fill="black"/>
  <path d="M224.758 1.07616L222.61 7.12902C222.601 7.1522 222.586 7.17221 222.566 7.18623C222.545 7.20026 222.521 7.2076 222.497 7.20724L215.575 7.08208C215.556 7.08154 215.538 7.07657 215.521 7.06761C215.505 7.05864 215.491 7.04592 215.48 7.03048C215.47 7.01505 215.463 6.99734 215.461 6.97881C215.458 6.96029 215.46 6.94146 215.467 6.92389L217.567 0.99967C217.575 0.976763 217.59 0.956959 217.61 0.942958C217.63 0.928957 217.654 0.921443 217.678 0.921446L224.647 0.917969C224.666 0.917967 224.685 0.922527 224.701 0.931266C224.718 0.940004 224.733 0.952663 224.744 0.968175C224.754 0.983687 224.762 1.00159 224.764 1.02039C224.767 1.03918 224.765 1.05831 224.758 1.07616Z" fill="black"/>
  <path d="M7.56624 0.917975L14.6099 0.92319C14.6225 0.923029 14.635 0.925913 14.6462 0.931598C14.6575 0.937283 14.6672 0.945601 14.6745 0.955842C14.6819 0.966083 14.6866 0.977945 14.6884 0.99042C14.6902 1.00289 14.6889 1.01561 14.6847 1.02749L13.0906 5.49499C13.0852 5.51041 13.0751 5.52373 13.0616 5.53308C13.0482 5.54243 13.0322 5.54735 13.0159 5.54714L5.98436 5.50368C5.97191 5.50357 5.95966 5.50048 5.94865 5.49468C5.93763 5.48887 5.92816 5.48052 5.92102 5.47032C5.91388 5.46012 5.90927 5.44836 5.90759 5.43603C5.90591 5.42369 5.9072 5.41112 5.91135 5.39938L7.49149 0.970125C7.49694 0.954712 7.50708 0.941395 7.52048 0.932041C7.53389 0.922687 7.54989 0.917767 7.56624 0.917975Z" fill="black"/>
  <path d="M15.7972 0.918241L23.2877 0.916504C23.3143 0.91653 23.3401 0.925963 23.3604 0.943137C23.3808 0.960312 23.3944 0.984124 23.3989 1.01037L24.1429 5.53524C24.1454 5.55132 24.1444 5.56775 24.14 5.58341C24.1356 5.59907 24.1278 5.61359 24.1172 5.62597C24.1067 5.63835 24.0936 5.6483 24.0788 5.65514C24.064 5.66199 24.048 5.66556 24.0317 5.66562L16.5378 5.59782C16.5109 5.59773 16.4849 5.58805 16.4645 5.57053C16.4441 5.553 16.4306 5.52878 16.4265 5.50221L15.686 1.05036C15.6832 1.03415 15.684 1.01752 15.6883 1.00165C15.6926 0.985775 15.7003 0.971034 15.7109 0.958453C15.7215 0.945872 15.7347 0.935754 15.7496 0.928809C15.7645 0.921864 15.7808 0.918257 15.7972 0.918241Z" fill="black"/>
  <path d="M49.5051 0.913088L57.863 0.925257C57.8903 0.925223 57.9167 0.934777 57.9377 0.952251C57.9587 0.969726 57.9728 0.994011 57.9777 1.02087L58.8556 5.79257C58.8586 5.80937 58.858 5.82664 58.8536 5.84314C58.8493 5.85965 58.8413 5.875 58.8304 5.88811C58.8194 5.90121 58.8057 5.91175 58.7903 5.91897C58.7748 5.92619 58.7579 5.92992 58.7409 5.9299L45.2775 5.8117C45.255 5.81148 45.2331 5.80478 45.2144 5.7924C45.1957 5.78002 45.1809 5.76249 45.1719 5.74192C45.1629 5.72134 45.16 5.69861 45.1637 5.67644C45.1673 5.65428 45.1772 5.63364 45.1923 5.617L49.4182 0.951331C49.4292 0.939209 49.4426 0.929539 49.4576 0.92295C49.4726 0.91636 49.4888 0.913 49.5051 0.913088Z" fill="black"/>
  <path d="M82.5525 6.09324L68.8909 6.00806C68.873 6.00774 68.8554 6.00315 68.8395 5.99466C68.8237 5.98617 68.8101 5.97403 68.7999 5.95924C68.7897 5.94446 68.7832 5.92745 68.7809 5.90964C68.7786 5.89183 68.7806 5.87373 68.7866 5.85683L70.5128 0.998206C70.5207 0.976363 70.535 0.957469 70.554 0.944095C70.573 0.930721 70.5956 0.923515 70.6188 0.923456L80.2961 0.916504C80.3177 0.916546 80.3389 0.922792 80.3571 0.934501C80.3752 0.94621 80.3897 0.962891 80.3987 0.982561L82.6568 5.93332C82.6647 5.95065 82.6681 5.9697 82.6667 5.9887C82.6652 6.0077 82.659 6.02603 82.6486 6.04199C82.6382 6.05795 82.6239 6.07101 82.6071 6.07997C82.5903 6.08893 82.5715 6.0935 82.5525 6.09324Z" fill="black"/>
  <path d="M91.8769 0.920041L98.8146 0.913087C98.8342 0.913019 98.8535 0.91769 98.8709 0.926702C98.8883 0.935714 98.9033 0.948801 98.9146 0.964847C98.9258 0.980894 98.9331 0.999424 98.9356 1.01886C98.9382 1.0383 98.936 1.05807 98.9293 1.07649L97.1284 6.1159C97.12 6.14002 97.1042 6.16088 97.0833 6.17555C97.0624 6.19021 97.0375 6.19793 97.0119 6.1976L90.0916 6.16458C90.0722 6.16454 90.0531 6.15987 90.0359 6.15096C90.0187 6.14204 90.0038 6.12914 89.9926 6.11332C89.9814 6.0975 89.9741 6.07922 89.9714 6.06002C89.9686 6.04081 89.9705 6.02123 89.9769 6.00291L91.7622 1C91.7707 0.976494 91.7864 0.956205 91.8069 0.941895C91.8274 0.927586 91.8519 0.919955 91.8769 0.920041Z" fill="black"/>
  <path d="M114.765 1.01448C114.775 0.988156 114.792 0.965308 114.815 0.949109C114.838 0.932909 114.866 0.924161 114.894 0.924085C120.169 0.914814 125.424 0.913076 130.659 0.91887C133.381 0.920609 137.294 0.932779 137.614 4.52764C137.671 5.16271 137.641 5.79256 137.525 6.4172C137.52 6.44744 137.504 6.47482 137.481 6.49454C137.457 6.51425 137.427 6.52503 137.397 6.52498L112.982 6.34941C112.898 6.34825 112.871 6.30827 112.898 6.22946L114.765 1.01448Z" fill="black"/>
  <path d="M141.591 0.914551L164.489 0.916288C164.51 0.916421 164.531 0.921679 164.55 0.931625C164.569 0.94157 164.585 0.955913 164.597 0.973449C164.61 0.990985 164.618 1.0112 164.62 1.03241C164.623 1.05362 164.621 1.0752 164.614 1.09534L162.639 6.62496C162.63 6.65106 162.612 6.67361 162.59 6.68949C162.567 6.70537 162.54 6.7138 162.512 6.71361L139.671 6.55195C139.649 6.55181 139.628 6.54656 139.609 6.53661C139.59 6.52666 139.574 6.51232 139.562 6.49479C139.549 6.47725 139.541 6.45703 139.539 6.43582C139.536 6.41462 139.538 6.39304 139.545 6.3729L141.466 1.0032C141.475 0.977382 141.492 0.955031 141.515 0.939174C141.537 0.923317 141.564 0.914721 141.591 0.914551Z" fill="black"/>
  <path d="M173.705 1.0886L171.696 6.6808C171.687 6.70584 171.67 6.72747 171.648 6.74272C171.627 6.75798 171.601 6.7661 171.574 6.76598L164.664 6.73121C164.644 6.73103 164.623 6.72594 164.605 6.71635C164.587 6.70677 164.571 6.69298 164.56 6.67613C164.548 6.65928 164.54 6.63987 164.538 6.61951C164.535 6.59915 164.537 6.57845 164.544 6.55912L166.521 1.00342C166.53 0.978662 166.546 0.957222 166.567 0.941992C166.589 0.926761 166.614 0.918472 166.641 0.918241L173.585 0.916504C173.606 0.916684 173.626 0.921778 173.644 0.93136C173.662 0.940943 173.678 0.954734 173.69 0.971583C173.701 0.988431 173.709 1.00784 173.712 1.0282C173.714 1.04856 173.712 1.06927 173.705 1.0886Z" fill="black"/>
  <path d="M202.494 1.13553L200.437 6.90331C200.426 6.93505 200.405 6.96246 200.377 6.98176C200.349 7.00106 200.316 7.0113 200.282 7.01108L193.43 6.95546C193.404 6.95525 193.378 6.94885 193.355 6.9368C193.332 6.92474 193.313 6.90736 193.298 6.88612C193.283 6.86488 193.273 6.84037 193.269 6.81464C193.266 6.78891 193.268 6.76269 193.277 6.73816L195.307 1.02776C195.319 0.996289 195.34 0.969078 195.367 0.949803C195.394 0.930528 195.427 0.920119 195.46 0.919981L202.341 0.916504C202.367 0.916611 202.393 0.923013 202.416 0.935167C202.439 0.947321 202.459 0.964873 202.474 0.986344C202.489 1.00781 202.499 1.03257 202.502 1.05854C202.505 1.0845 202.502 1.11091 202.494 1.13553Z" fill="black"/>
  <path d="M242.878 14.7863L247.817 0.95969C247.821 0.947936 247.829 0.937789 247.839 0.930635C247.85 0.92348 247.862 0.919666 247.874 0.919709L254.939 0.917969C254.949 0.917935 254.958 0.920272 254.967 0.924778C254.976 0.929284 254.983 0.935826 254.989 0.943849C254.995 0.951873 254.998 0.961138 254.999 0.970857C255.001 0.980576 255 0.990462 254.996 0.999671L247.488 22.0369C247.484 22.0487 247.476 22.0588 247.466 22.066C247.456 22.0731 247.444 22.0769 247.431 22.0769L237.799 22.0786C237.788 22.0784 237.777 22.0751 237.767 22.0689C237.758 22.0628 237.75 22.0541 237.745 22.0439L231.261 8.29022C231.256 8.27965 231.248 8.27083 231.238 8.26485C231.227 8.25887 231.216 8.25598 231.204 8.25653C231.192 8.25708 231.181 8.26106 231.171 8.26796C231.162 8.27487 231.154 8.28442 231.15 8.29543L226.251 22.0404C226.247 22.0521 226.239 22.0623 226.229 22.0694C226.219 22.0766 226.206 22.0804 226.194 22.0804L219.129 22.0647C219.12 22.0648 219.11 22.0624 219.101 22.0579C219.093 22.0534 219.085 22.0469 219.079 22.0388C219.074 22.0308 219.07 22.0216 219.069 22.0118C219.068 22.0021 219.069 21.9922 219.072 21.983L226.576 0.957953C226.581 0.946198 226.589 0.936052 226.599 0.928897C226.609 0.921743 226.621 0.917926 226.634 0.917969H236.365C236.376 0.918172 236.387 0.921535 236.397 0.927677C236.406 0.93382 236.414 0.9425 236.419 0.952738L242.765 14.7916C242.77 14.8027 242.779 14.812 242.789 14.8184C242.799 14.8248 242.812 14.8279 242.824 14.8273C242.836 14.8268 242.848 14.8226 242.857 14.8153C242.867 14.8079 242.874 14.7979 242.878 14.7863ZM225.431 7.25244C227.151 7.32545 228.854 7.32429 230.542 7.24896C230.663 7.24316 230.663 7.23969 230.542 7.23853C228.65 7.21999 226.742 7.20087 224.817 7.18116C224.798 7.18116 224.782 7.18464 224.77 7.1916C224.753 7.20319 224.74 7.21651 224.732 7.23158C224.712 7.26982 224.724 7.29184 224.767 7.29763C224.989 7.32371 225.229 7.24548 225.431 7.25244Z" fill="black"/>
  <path d="M225.431 7.25242C225.229 7.24547 224.989 7.3237 224.767 7.29762C224.724 7.29183 224.712 7.26981 224.732 7.23157C224.74 7.2165 224.753 7.20317 224.77 7.19158C224.782 7.18463 224.798 7.18115 224.817 7.18115C226.742 7.20085 228.65 7.21998 230.542 7.23852C230.663 7.23968 230.663 7.24315 230.542 7.24895C228.854 7.32427 227.151 7.32543 225.431 7.25242Z" fill="white"/>
  <path d="M210.081 21.992L215.281 7.4074C215.284 7.39685 215.291 7.38768 215.3 7.38114C215.309 7.3746 215.32 7.37102 215.331 7.3709L222.446 7.35352C222.455 7.35351 222.463 7.35563 222.471 7.35968C222.479 7.36373 222.486 7.3696 222.491 7.37679C222.495 7.38397 222.499 7.39225 222.5 7.40091C222.501 7.40957 222.5 7.41837 222.497 7.42653L217.282 22.0476C217.278 22.0582 217.271 22.0673 217.262 22.0739C217.253 22.0804 217.242 22.084 217.231 22.0841L210.132 22.0632C210.123 22.0632 210.115 22.061 210.107 22.0571C210.1 22.0531 210.093 22.0474 210.088 22.0405C210.083 22.0335 210.08 22.0255 210.079 22.0171C210.078 22.0086 210.079 22 210.081 21.992Z" fill="black"/>
  <path d="M210.561 16.3697L208.548 22.0019C208.54 22.0248 208.525 22.0446 208.505 22.0586C208.485 22.0726 208.461 22.0801 208.437 22.0801L187.972 22.0749C187.953 22.0749 187.934 22.0704 187.917 22.0616C187.9 22.0529 187.886 22.0402 187.875 22.0247C187.864 22.0092 187.857 21.9913 187.854 21.9725C187.852 21.9537 187.854 21.9346 187.86 21.9167L192.98 7.55815C192.988 7.53524 193.003 7.51543 193.023 7.50143C193.043 7.48743 193.067 7.47992 193.091 7.47992L200.081 7.43994C200.1 7.44004 200.118 7.44459 200.135 7.45324C200.151 7.46188 200.166 7.47436 200.177 7.48964C200.187 7.50493 200.194 7.52258 200.197 7.54114C200.2 7.55971 200.198 7.57864 200.192 7.59639L197.164 16.0603C197.157 16.0782 197.155 16.0973 197.158 16.1161C197.161 16.1349 197.168 16.1528 197.178 16.1683C197.189 16.1838 197.204 16.1965 197.221 16.2052C197.237 16.2139 197.256 16.2185 197.275 16.2185L210.45 16.2115C210.469 16.2115 210.488 16.2161 210.504 16.2248C210.521 16.2336 210.536 16.2462 210.547 16.2617C210.558 16.2773 210.565 16.2952 210.567 16.314C210.57 16.3328 210.568 16.3519 210.561 16.3697Z" fill="black"/>
  <path d="M178.371 11.6443L187.155 21.8952C187.167 21.9091 187.174 21.9262 187.177 21.9444C187.18 21.9626 187.177 21.9811 187.169 21.9978C187.161 22.0145 187.149 22.0286 187.134 22.0385C187.118 22.0483 187.1 22.0535 187.082 22.0534C184.057 22.0835 181.011 22.0933 177.943 22.0829C177.565 22.0806 177.258 21.9375 177.02 21.6535C175.078 19.3219 173.116 16.9774 171.136 14.6203C171.086 14.561 171.025 14.5134 170.955 14.4809C170.885 14.4485 170.809 14.432 170.733 14.4325L169.092 14.4464C169.045 14.4463 168.999 14.4608 168.961 14.4879C168.923 14.515 168.894 14.5533 168.878 14.5977L166.272 21.9073C166.254 21.9581 166.22 22.0019 166.176 22.0328C166.132 22.0636 166.08 22.0799 166.027 22.0794L159.128 22.0673C159.043 22.0673 159.015 22.0279 159.042 21.9491L164.148 7.66348C164.153 7.64876 164.162 7.63599 164.175 7.62695C164.187 7.61791 164.202 7.61306 164.217 7.61307L171.134 7.58178C171.164 7.58193 171.194 7.58964 171.22 7.60417C171.247 7.6187 171.269 7.6396 171.285 7.66491C171.301 7.69023 171.311 7.71915 171.313 7.74898C171.314 7.77882 171.309 7.80861 171.296 7.83558C171.219 7.9955 171.177 8.16238 171.169 8.33621C171.165 8.39416 171.193 8.42487 171.252 8.42835C171.897 8.46485 172.69 8.517 173.187 8.14674C173.617 7.82515 174.027 7.56787 174.597 7.56787C177.561 7.56787 180.573 7.64958 183.532 7.51572C183.836 7.50182 183.862 7.58062 183.612 7.75214L178.413 11.3174C178.278 11.4102 178.264 11.5191 178.371 11.6443Z" fill="black"/>
  <path d="M159.397 16.344L157.393 22.0126C157.386 22.0318 157.374 22.0483 157.357 22.0602C157.341 22.072 157.321 22.0784 157.301 22.0787L134.075 22.077C134.059 22.077 134.043 22.0733 134.029 22.066C134.015 22.0588 134.003 22.0482 133.994 22.0353C133.984 22.0223 133.978 22.0073 133.976 21.9916C133.974 21.9759 133.976 21.9598 133.981 21.9449L139.038 7.81746C139.045 7.79835 139.057 7.78177 139.073 7.76996C139.09 7.75815 139.11 7.75167 139.13 7.75141L146.114 7.71143C146.13 7.71135 146.146 7.7151 146.16 7.72236C146.174 7.72962 146.186 7.74017 146.196 7.75312C146.205 7.76607 146.211 7.78105 146.213 7.79679C146.215 7.81252 146.214 7.82856 146.208 7.84354L145.88 8.77702C145.875 8.792 145.873 8.80804 145.875 8.82378C145.877 8.83951 145.883 8.85449 145.892 8.86744C145.902 8.8804 145.914 8.89094 145.928 8.8982C145.942 8.90546 145.958 8.90921 145.974 8.90913L160.756 8.90044C160.772 8.90037 160.788 8.90412 160.802 8.91138C160.816 8.91863 160.828 8.92918 160.838 8.94214C160.847 8.95509 160.853 8.97007 160.855 8.9858C160.857 9.00154 160.856 9.01758 160.85 9.03256L159.065 14.0442C159.058 14.0633 159.046 14.0799 159.029 14.0917C159.013 14.1035 158.993 14.1099 158.973 14.1102L144.049 14.0998C144.029 14.0997 144.009 14.106 143.992 14.1178C143.975 14.1297 143.962 14.1464 143.955 14.1658L143.291 16.0832C143.286 16.0982 143.285 16.1142 143.287 16.13C143.289 16.1457 143.295 16.1607 143.304 16.1736C143.313 16.1866 143.325 16.1971 143.34 16.2044C143.354 16.2117 143.369 16.2154 143.385 16.2153L159.303 16.2118C159.319 16.2118 159.335 16.2155 159.349 16.2228C159.363 16.23 159.375 16.2406 159.384 16.2535C159.394 16.2665 159.4 16.2815 159.402 16.2972C159.404 16.3129 159.402 16.329 159.397 16.344Z" fill="black"/>
  <path d="M118.44 10.9932C118.437 11.0009 118.437 11.0092 118.438 11.0174C118.439 11.0256 118.442 11.0333 118.447 11.04C118.451 11.0467 118.458 11.0521 118.465 11.0558C118.473 11.0594 118.481 11.0612 118.489 11.061C121.408 11.0332 124.321 11.0923 127.233 11.0036C128.839 10.955 129.574 9.21664 129.786 7.88334C129.794 7.82772 129.827 7.79991 129.884 7.79991L137.089 7.76514C137.102 7.76519 137.115 7.76829 137.127 7.77418C137.139 7.78007 137.149 7.78859 137.157 7.79906C137.165 7.80953 137.171 7.82166 137.173 7.83449C137.175 7.84731 137.175 7.86047 137.171 7.87291C136.507 10.1623 135.351 12.9054 133.793 14.5637C132.281 16.1711 130.324 16.9928 127.921 17.0287C124.68 17.0774 120.824 17.0739 116.354 17.0183C116.301 17.0171 116.266 17.042 116.248 17.093L114.524 21.9777C114.514 22.0066 114.495 22.0316 114.47 22.0494C114.445 22.0671 114.415 22.0767 114.385 22.0768L107.365 22.0664C107.284 22.0664 107.257 22.0281 107.284 21.9516L112.274 7.98764C112.285 7.95817 112.304 7.93254 112.329 7.91421C112.355 7.89588 112.385 7.88571 112.417 7.88508L119.33 7.83815C119.356 7.83784 119.381 7.84367 119.404 7.85513C119.426 7.86659 119.446 7.88334 119.461 7.90398C119.476 7.92461 119.485 7.94852 119.489 7.97367C119.492 7.99883 119.49 8.02449 119.482 8.04848L118.44 10.9932Z" fill="black"/>
  <path d="M86.8514 14.7773L89.1773 8.22036C89.2283 8.07898 89.3285 8.00771 89.478 8.00655L96.2801 7.98047C96.3012 7.98029 96.322 7.98524 96.3408 7.99488C96.3596 8.00453 96.3757 8.0186 96.3879 8.03587C96.4 8.05314 96.4078 8.0731 96.4105 8.09403C96.4132 8.11496 96.4108 8.13624 96.4035 8.15604L91.4805 21.934C91.4697 21.9635 91.4503 21.9891 91.425 22.0076C91.3996 22.0262 91.3694 22.0369 91.338 22.0383C88.5202 22.1496 85.678 22.0696 82.8567 22.0766C82.5009 22.0777 82.1533 22.0609 81.8137 22.0262C81.778 22.0224 81.7438 22.0096 81.7143 21.9889C81.6848 21.9682 81.661 21.9404 81.6451 21.908L75.3471 8.56107C75.1918 8.23311 75.0702 8.2447 74.9821 8.59584C74.9462 8.73607 74.8801 8.94235 74.7839 9.21469C73.4199 13.0541 72.0472 16.89 70.6658 20.7224C70.5175 21.1361 70.3813 21.5551 70.2573 21.9792C70.2399 22.0395 70.2028 22.0696 70.1461 22.0696L63.1058 22.0731C63.0932 22.073 63.0807 22.0698 63.0695 22.0639C63.0583 22.058 63.0486 22.0496 63.0413 22.0392C63.034 22.0289 63.0293 22.0169 63.0275 22.0044C63.0257 21.9918 63.0269 21.979 63.0311 21.9671L67.9384 8.22036C67.9491 8.19028 67.969 8.16427 67.9951 8.14591C68.0212 8.12754 68.0524 8.11773 68.0844 8.1178L83.4755 8.04827C83.5822 8.04827 83.6575 8.09636 83.7015 8.19255L86.7227 14.7843C86.7703 14.8886 86.8131 14.8863 86.8514 14.7773Z" fill="black"/>
  <path d="M52.4881 12.8784C52.56 12.8784 52.5889 12.843 52.575 12.7723L51.7285 8.39524C51.7247 8.37475 51.7254 8.35368 51.7306 8.3335C51.7358 8.31333 51.7454 8.29454 51.7586 8.27847C51.7719 8.26239 51.7885 8.24942 51.8073 8.24046C51.8261 8.2315 51.8467 8.22678 51.8675 8.22662L59.205 8.17969C59.263 8.17969 59.2972 8.20808 59.3076 8.26487L61.7777 21.9681C61.7798 21.9803 61.7792 21.9927 61.776 22.0046C61.7728 22.0165 61.7672 22.0276 61.7594 22.037C61.7516 22.0464 61.7419 22.054 61.731 22.0592C61.7201 22.0644 61.7081 22.0672 61.696 22.0672L54.1343 22.0846C54.0752 22.0846 54.0393 22.0556 54.0265 21.9977L53.3469 18.9486C53.3144 18.798 53.2205 18.7232 53.0652 18.7244C49.6871 18.7325 46.2759 18.7255 42.8317 18.7035C42.4423 18.7 42.057 18.7331 41.6757 18.8026C41.3733 18.8582 41.2324 19.0338 41.0343 19.2407C40.2601 20.0565 39.4889 20.8747 38.7206 21.6952C38.3138 22.1298 37.9974 22.0828 37.4429 22.0811C35.146 22.0753 32.8375 22.066 30.5174 22.0533C30.5058 22.0531 30.4945 22.0504 30.4842 22.0452C30.4739 22.04 30.4649 22.0326 30.458 22.0235C30.4511 22.0144 30.4464 22.0039 30.4444 21.9928C30.4423 21.9817 30.4429 21.9702 30.4461 21.9594C30.4566 21.9235 30.4797 21.8858 30.5157 21.8464C34.5138 17.4276 38.5091 13.007 42.5014 8.58472C42.6903 8.37612 42.9453 8.27008 43.2663 8.2666C45.2943 8.24343 47.3224 8.23068 49.3504 8.22836C49.719 8.22836 50.0232 8.21793 50.2631 8.19707C50.5678 8.17158 50.6183 8.2724 50.4143 8.49954L46.6473 12.682C46.5222 12.821 46.5529 12.89 46.7395 12.8888L52.4881 12.8784Z" fill="black"/>
  <path d="M25.6779 14.6873C25.6976 14.8067 25.748 14.8212 25.8291 14.7308C27.6891 12.6807 29.5567 10.6353 31.4317 8.59447C31.6299 8.37718 32.0158 8.30243 32.3409 8.29895C34.7745 8.26187 37.1955 8.25144 39.6036 8.26766C39.6186 8.26804 39.6332 8.27265 39.6457 8.28094C39.6582 8.28924 39.6681 8.30086 39.6742 8.31443C39.6802 8.328 39.6822 8.34293 39.6798 8.35745C39.6775 8.37197 39.671 8.38546 39.661 8.3963C35.6791 12.8314 31.711 17.2786 27.7569 21.738C27.5622 21.9582 27.3142 22.0688 27.0129 22.07C24.6233 22.0816 22.1317 22.0827 19.5381 22.0735C19.3979 22.0735 19.3162 22.0051 19.293 21.8683C18.5525 17.6257 17.7946 13.3378 17.0193 9.00471C16.9868 8.8274 16.959 8.69413 16.9358 8.6049C16.8976 8.45888 16.9538 8.38587 17.1044 8.38587L24.4402 8.35632C24.4929 8.35566 24.5442 8.37406 24.5847 8.40818C24.6252 8.44229 24.6522 8.48988 24.661 8.54232L25.6779 14.6873Z" fill="black"/>
  <path d="M12.0007 8.57181L7.20468 22.0091C7.19717 22.0303 7.18329 22.0487 7.16494 22.0618C7.14658 22.0749 7.12465 22.082 7.10212 22.0821L0.108825 22.0699C0.0913629 22.0698 0.074181 22.0655 0.0587114 22.0574C0.0432418 22.0493 0.0299344 22.0376 0.0198977 22.0234C0.009861 22.0091 0.00338627 21.9926 0.00101472 21.9753C-0.00135684 21.958 0.000442907 21.9404 0.00626397 21.9239L4.79362 8.52313C4.80113 8.50189 4.815 8.48348 4.83336 8.47042C4.85171 8.45735 4.87365 8.45026 4.89618 8.45012L11.8964 8.42579C11.914 8.42562 11.9314 8.4297 11.9471 8.43768C11.9628 8.44566 11.9764 8.45731 11.9866 8.47164C11.9968 8.48597 12.0035 8.50256 12.0059 8.51999C12.0084 8.53743 12.0066 8.5552 12.0007 8.57181Z" fill="black"/>
</svg>