<svg width="35" height="35" viewBox="0 0 35 35" fill="none" xmlns="http://www.w3.org/2000/svg">
<path fill-rule="evenodd" clip-rule="evenodd" d="M17.4997 4.37498C10.2509 4.37498 4.37467 10.2512 4.37467 17.5C4.37467 24.7487 10.2509 30.625 17.4997 30.625C24.7484 30.625 30.6247 24.7487 30.6247 17.5C30.6247 10.2512 24.7484 4.37498 17.4997 4.37498ZM1.45801 17.5C1.45801 8.64041 8.64011 1.45831 17.4997 1.45831C26.3592 1.45831 33.5413 8.64041 33.5413 17.5C33.5413 26.3595 26.3592 33.5416 17.4997 33.5416C8.64011 33.5416 1.45801 26.3595 1.45801 17.5Z" fill="#A20F0F"/>
<path fill-rule="evenodd" clip-rule="evenodd" d="M17.5003 10.2083C18.3057 10.2083 18.9587 10.8612 18.9587 11.6666V23.3333C18.9587 24.1387 18.3057 24.7916 17.5003 24.7916C16.6949 24.7916 16.042 24.1387 16.042 23.3333V11.6666C16.042 10.8612 16.6949 10.2083 17.5003 10.2083Z" fill="#A20F0F"/>
<path fill-rule="evenodd" clip-rule="evenodd" d="M10.208 17.5C10.208 16.6946 10.8609 16.0417 11.6663 16.0417H23.333C24.1384 16.0417 24.7913 16.6946 24.7913 17.5C24.7913 18.3054 24.1384 18.9584 23.333 18.9584H11.6663C10.8609 18.9584 10.208 18.3054 10.208 17.5Z" fill="#A20F0F"/>
</svg>
