<svg xmlns="http://www.w3.org/2000/svg" width="120" height="120" viewBox="0 0 120 120" fill="none">
  <path fill-rule="evenodd" clip-rule="evenodd" d="M52.6409 11.4155C54.8873 10.1508 57.4218 9.48633 59.9999 9.48633C62.5779 9.48633 65.1124 10.1508 67.3588 11.4155C69.6053 12.6803 71.4878 14.5027 72.8249 16.7069L72.8393 16.7307L115.189 87.4307L115.23 87.4997C116.54 89.7679 117.233 92.3395 117.24 94.9586C117.247 97.5778 116.569 100.153 115.272 102.429C113.975 104.704 112.104 106.6 109.847 107.929C107.59 109.257 105.024 109.971 102.405 110L102.35 110L17.5949 110C14.9759 109.971 12.4101 109.257 10.1527 107.929C7.89535 106.6 6.02512 104.704 4.72811 102.429C3.43109 100.153 2.75249 97.5778 2.75982 94.9586C2.76716 92.3395 3.46017 89.7679 4.76991 87.4997L4.81052 87.4307L47.1748 16.7069C48.5118 14.5027 50.3944 12.6803 52.6409 11.4155ZM59.9999 19.4863C59.1405 19.4863 58.2957 19.7078 57.5469 20.1294C56.8014 20.5491 56.1762 21.153 55.7309 21.8832L13.4133 92.5292C12.9874 93.2782 12.7622 94.1247 12.7598 94.9866C12.7573 95.8597 12.9835 96.7182 13.4159 97.4767C13.8482 98.2352 14.4716 98.8672 15.2241 99.31C15.97 99.7489 16.8168 99.9866 17.6818 100H102.318C103.183 99.9866 104.03 99.7489 104.776 99.31C105.528 98.8672 106.151 98.2351 106.584 97.4767C107.016 96.7182 107.242 95.8597 107.24 94.9866C107.238 94.1248 107.012 93.2784 106.587 92.5294L64.2749 21.8932C64.2729 21.8899 64.2708 21.8866 64.2688 21.8832C63.8235 21.153 63.1983 20.5491 62.4529 20.1294C61.704 19.7078 60.8592 19.4863 59.9999 19.4863Z" fill="white"/>
  <path fill-rule="evenodd" clip-rule="evenodd" d="M60 40C62.7614 40 65 42.2386 65 45V65C65 67.7614 62.7614 70 60 70C57.2386 70 55 67.7614 55 65V45C55 42.2386 57.2386 40 60 40Z" fill="white"/>
  <path fill-rule="evenodd" clip-rule="evenodd" d="M55 85C55 82.2386 57.2386 80 60 80H60.05C62.8114 80 65.05 82.2386 65.05 85C65.05 87.7614 62.8114 90 60.05 90H60C57.2386 90 55 87.7614 55 85Z" fill="white"/>
</svg>