<svg width="33" height="33" viewBox="0 0 33 33" fill="none" xmlns="http://www.w3.org/2000/svg">
<circle cx="16.5" cy="16.5" r="16.5" fill="#A20F0F"/>
<path fill-rule="evenodd" clip-rule="evenodd" d="M7.75 11.25C7.75 10.7668 8.14175 10.375 8.625 10.375H24.375C24.8582 10.375 25.25 10.7668 25.25 11.25C25.25 11.7332 24.8582 12.125 24.375 12.125H8.625C8.14175 12.125 7.75 11.7332 7.75 11.25Z" fill="white"/>
<path fill-rule="evenodd" clip-rule="evenodd" d="M14.75 8.625C14.5179 8.625 14.2954 8.71719 14.1313 8.88128C13.9672 9.04538 13.875 9.26794 13.875 9.5V11.25C13.875 11.7332 13.4832 12.125 13 12.125C12.5168 12.125 12.125 11.7332 12.125 11.25V9.5C12.125 8.80381 12.4016 8.13613 12.8938 7.64384C13.3861 7.15156 14.0538 6.875 14.75 6.875H18.25C18.9462 6.875 19.6139 7.15156 20.1062 7.64384C20.5984 8.13613 20.875 8.80381 20.875 9.5V11.25C20.875 11.7332 20.4832 12.125 20 12.125C19.5168 12.125 19.125 11.7332 19.125 11.25V9.5C19.125 9.26794 19.0328 9.04538 18.8687 8.88128C18.7046 8.71719 18.4821 8.625 18.25 8.625H14.75ZM10.375 10.375C10.8582 10.375 11.25 10.7668 11.25 11.25V23.5C11.25 23.7321 11.3422 23.9546 11.5063 24.1187C11.6704 24.2828 11.8929 24.375 12.125 24.375H20.875C21.1071 24.375 21.3296 24.2828 21.4937 24.1187C21.6578 23.9546 21.75 23.7321 21.75 23.5V11.25C21.75 10.7668 22.1418 10.375 22.625 10.375C23.1082 10.375 23.5 10.7668 23.5 11.25V23.5C23.5 24.1962 23.2234 24.8639 22.7312 25.3562C22.2389 25.8484 21.5712 26.125 20.875 26.125H12.125C11.4288 26.125 10.7611 25.8484 10.2688 25.3562C9.77656 24.8639 9.5 24.1962 9.5 23.5V11.25C9.5 10.7668 9.89175 10.375 10.375 10.375Z" fill="white"/>
<path fill-rule="evenodd" clip-rule="evenodd" d="M14.75 14.75C15.2332 14.75 15.625 15.1418 15.625 15.625V20.875C15.625 21.3582 15.2332 21.75 14.75 21.75C14.2668 21.75 13.875 21.3582 13.875 20.875V15.625C13.875 15.1418 14.2668 14.75 14.75 14.75Z" fill="white"/>
<path fill-rule="evenodd" clip-rule="evenodd" d="M18.25 14.75C18.7332 14.75 19.125 15.1418 19.125 15.625V20.875C19.125 21.3582 18.7332 21.75 18.25 21.75C17.7668 21.75 17.375 21.3582 17.375 20.875V15.625C17.375 15.1418 17.7668 14.75 18.25 14.75Z" fill="white"/>
</svg>
