<svg width="33" height="33" viewBox="0 0 33 33" fill="none" xmlns="http://www.w3.org/2000/svg">
<circle cx="16.5" cy="16.5" r="16.5" fill="#A20F0F"/>
<g clip-path="url(#clip0_574_1646)">
<path fill-rule="evenodd" clip-rule="evenodd" d="M7.64384 9.39384C8.13613 8.90156 8.80381 8.625 9.5 8.625H15.625C16.1082 8.625 16.5 9.01675 16.5 9.5C16.5 9.98325 16.1082 10.375 15.625 10.375H9.5C9.26794 10.375 9.04538 10.4672 8.88128 10.6313C8.71719 10.7954 8.625 11.0179 8.625 11.25V23.5C8.625 23.7321 8.71719 23.9546 8.88128 24.1187C9.04538 24.2828 9.26794 24.375 9.5 24.375H21.75C21.9821 24.375 22.2046 24.2828 22.3687 24.1187C22.5328 23.9546 22.625 23.7321 22.625 23.5V17.375C22.625 16.8918 23.0168 16.5 23.5 16.5C23.9832 16.5 24.375 16.8918 24.375 17.375V23.5C24.375 24.1962 24.0984 24.8639 23.6062 25.3562C23.1139 25.8484 22.4462 26.125 21.75 26.125H9.5C8.80381 26.125 8.13613 25.8484 7.64384 25.3562C7.15156 24.8639 6.875 24.1962 6.875 23.5V11.25C6.875 10.5538 7.15156 9.88613 7.64384 9.39384Z" fill="white"/>
<path fill-rule="evenodd" clip-rule="evenodd" d="M23.5 8.5188C23.2398 8.5188 22.9902 8.62217 22.8062 8.80617L14.6651 16.9473L14.2026 18.7974L16.0527 18.3349L24.1938 10.1937C24.3778 10.0097 24.4812 9.76017 24.4812 9.49995C24.4812 9.23974 24.3778 8.99018 24.1938 8.80617C24.0098 8.62217 23.7602 8.5188 23.5 8.5188ZM21.5688 7.56874C22.081 7.05654 22.7757 6.7688 23.5 6.7688C24.2244 6.7688 24.919 7.05654 25.4312 7.56874C25.9434 8.08093 26.2312 8.77561 26.2312 9.49995C26.2312 10.2243 25.9434 10.919 25.4312 11.4312L17.1187 19.7437C17.0066 19.8558 16.8661 19.9354 16.7122 19.9738L13.2122 20.8488C12.9141 20.9234 12.5986 20.836 12.3813 20.6187C12.164 20.4013 12.0766 20.0859 12.1511 19.7877L13.0261 16.2877C13.0646 16.1339 13.1442 15.9934 13.2563 15.8812L21.5688 7.56874Z" fill="white"/>
</g>
<defs>
<clipPath id="clip0_574_1646">
<rect width="21" height="21" fill="white" transform="translate(6 6)"/>
</clipPath>
</defs>
</svg>
