<svg width="52" height="52" viewBox="0 0 52 52" fill="none" xmlns="http://www.w3.org/2000/svg">
<circle cx="26" cy="26" r="25.5" fill="#161616" stroke="#636363"/>
<path d="M25.8012 13C22.3249 13 21.8886 13.0152 20.5233 13.0773C19.1606 13.1397 18.2305 13.3555 17.4166 13.672C16.5747 13.9989 15.8606 14.4363 15.1491 15.148C14.4371 15.8595 13.9997 16.5736 13.6717 17.4152C13.3544 18.2294 13.1384 19.1598 13.0771 20.5219C13.016 21.8873 13 22.3238 13 25.8001C13 29.2764 13.0155 29.7114 13.0773 31.0767C13.14 32.4394 13.3557 33.3695 13.672 34.1834C13.9992 35.0253 14.4365 35.7394 15.1483 36.4509C15.8595 37.1629 16.5736 37.6013 17.415 37.9283C18.2294 38.2448 19.1598 38.4605 20.5222 38.5229C21.8876 38.5851 22.3236 38.6003 25.7996 38.6003C29.2762 38.6003 29.7111 38.5851 31.0765 38.5229C32.4391 38.4605 33.3703 38.2448 34.1848 37.9283C35.0264 37.6013 35.7394 37.1629 36.4506 36.4509C37.1627 35.7394 37.6 35.0253 37.928 34.1837C38.2427 33.3695 38.4587 32.4391 38.5227 31.077C38.584 29.7116 38.6 29.2764 38.6 25.8001C38.6 22.3238 38.584 21.8876 38.5227 20.5222C38.4587 19.1595 38.2427 18.2294 37.928 17.4155C37.6 16.5736 37.1627 15.8595 36.4506 15.148C35.7386 14.436 35.0266 13.9987 34.184 13.672C33.3679 13.3555 32.4373 13.1397 31.0746 13.0773C29.7092 13.0152 29.2746 13 25.7972 13H25.8012Z" fill="white"/>
<path fill-rule="evenodd" clip-rule="evenodd" d="M24.6529 15.3069C24.8759 15.3066 25.1157 15.3067 25.3746 15.3068L25.8012 15.3069C29.2188 15.3069 29.6239 15.3192 30.9735 15.3805C32.2215 15.4376 32.8989 15.6461 33.3501 15.8213C33.9474 16.0533 34.3733 16.3307 34.821 16.7787C35.269 17.2267 35.5463 17.6533 35.7789 18.2507C35.9541 18.7013 36.1629 19.3787 36.2197 20.6267C36.281 21.976 36.2944 22.3814 36.2944 25.7974C36.2944 29.2135 36.281 29.6188 36.2197 30.9681C36.1626 32.2162 35.9541 32.8935 35.7789 33.3442C35.5469 33.9415 35.269 34.3668 34.821 34.8146C34.373 35.2626 33.9477 35.5399 33.3501 35.7719C32.8994 35.9479 32.2215 36.1559 30.9735 36.213C29.6242 36.2743 29.2188 36.2877 25.8012 36.2877C22.3833 36.2877 21.9782 36.2743 20.6289 36.213C19.3808 36.1554 18.7035 35.9469 18.252 35.7717C17.6547 35.5397 17.228 35.2623 16.78 34.8143C16.332 34.3663 16.0547 33.9407 15.8221 33.3431C15.6469 32.8924 15.4381 32.2151 15.3813 30.9671C15.32 29.6177 15.3077 29.2124 15.3077 25.7942C15.3077 22.3761 15.32 21.9728 15.3813 20.6235C15.4384 19.3755 15.6469 18.6981 15.8221 18.2469C16.0541 17.6496 16.332 17.2229 16.78 16.7749C17.228 16.3269 17.6547 16.0496 18.252 15.817C18.7032 15.641 19.3808 15.433 20.6289 15.3757C21.8097 15.3224 22.2673 15.3064 24.6529 15.3037V15.3069ZM32.6338 17.4323C31.7858 17.4323 31.0978 18.1195 31.0978 18.9678C31.0978 19.8158 31.7858 20.5038 32.6338 20.5038C33.4818 20.5038 34.1698 19.8158 34.1698 18.9678C34.1698 18.1198 33.4818 17.4318 32.6338 17.4318V17.4323ZM19.2278 25.8003C19.2278 22.1702 22.1709 19.2271 25.8009 19.2269C29.4311 19.2269 32.3735 22.1702 32.3735 25.8003C32.3735 29.4305 29.4314 32.3724 25.8012 32.3724C22.171 32.3724 19.2278 29.4305 19.2278 25.8003Z" fill="#161616"/>
<path d="M25.8012 21.5332C28.1575 21.5332 30.0679 23.4434 30.0679 25.7999C30.0679 28.1562 28.1575 30.0666 25.8012 30.0666C23.4446 30.0666 21.5345 28.1562 21.5345 25.7999C21.5345 23.4434 23.4446 21.5332 25.8012 21.5332Z" fill="#161616"/>
</svg>
