<svg xmlns="http://www.w3.org/2000/svg" width="202" height="17" viewBox="0 0 202 17" fill="none">
  <path d="M27.0677 3.73175L30.4455 0.0165237C30.4503 0.011363 30.456 0.0072324 30.4624 0.00438936C30.4688 0.00154632 30.4757 5.24665e-05 30.4827 0L36.5774 0.0151474C36.5872 0.0151894 36.5966 0.0180073 36.6048 0.0232684C36.613 0.0285296 36.6195 0.0360157 36.6235 0.0448433C36.6276 0.053671 36.629 0.0634725 36.6277 0.0730937C36.6264 0.0827149 36.6223 0.0917537 36.616 0.0991462L33.2726 3.8667C33.2678 3.87228 33.2619 3.87677 33.2552 3.87986C33.2486 3.88295 33.2414 3.88457 33.234 3.8846L27.1049 3.81712C27.095 3.81705 27.0854 3.81412 27.0772 3.80869C27.0689 3.80325 27.0625 3.79555 27.0585 3.78652C27.0546 3.77748 27.0534 3.7675 27.055 3.75777C27.0566 3.74805 27.061 3.73901 27.0677 3.73175Z" fill="white"/>
  <path d="M153.173 0.11815L146.451 4.74221C146.441 4.74919 146.429 4.75304 146.417 4.75323L138.929 4.68575C138.917 4.68556 138.905 4.68156 138.896 4.67431C138.886 4.66705 138.879 4.65692 138.875 4.64534C138.871 4.63376 138.871 4.62132 138.875 4.60979C138.879 4.59826 138.886 4.58822 138.896 4.5811L145.459 0.0217587C145.469 0.0147773 145.48 0.0109304 145.492 0.0107422L153.14 0.0121185C153.153 0.0118815 153.165 0.0157124 153.175 0.0230362C153.185 0.0303599 153.193 0.0407818 153.196 0.0527342C153.2 0.0646866 153.2 0.077524 153.196 0.0893199C153.192 0.101116 153.184 0.111233 153.173 0.11815Z" fill="white"/>
  <path d="M178.044 0.138005L176.342 4.93282C176.335 4.95119 176.323 4.96703 176.307 4.97814C176.291 4.98925 176.272 4.99507 176.252 4.99478L170.769 4.89564C170.754 4.89521 170.74 4.89128 170.727 4.88417C170.714 4.87707 170.702 4.86699 170.694 4.85476C170.686 4.84254 170.681 4.82851 170.679 4.81383C170.677 4.79916 170.678 4.78425 170.683 4.77033L172.347 0.0774158C172.353 0.0592698 172.365 0.0435813 172.381 0.0324905C172.397 0.0213997 172.416 0.0154477 172.435 0.01545L177.956 0.0126953C177.971 0.0126936 177.985 0.0163065 177.999 0.0232285C178.012 0.0301505 178.023 0.0401787 178.032 0.0524664C178.041 0.0647541 178.046 0.0789403 178.048 0.0938281C178.05 0.108716 178.049 0.123868 178.044 0.138005Z" fill="white"/>
  <path d="M5.99364 0.0127003L11.5734 0.0168312C11.5833 0.0167037 11.5932 0.0189887 11.6021 0.023492C11.611 0.0279952 11.6187 0.0345842 11.6245 0.0426967C11.6303 0.0508093 11.6341 0.0602059 11.6355 0.0700877C11.6369 0.0799695 11.6359 0.0900441 11.6326 0.0994538L10.3698 3.63842C10.3655 3.65062 10.3575 3.66118 10.3469 3.66859C10.3363 3.676 10.3236 3.67989 10.3106 3.67973L4.74055 3.6453C4.73068 3.64521 4.72099 3.64276 4.71226 3.63816C4.70353 3.63357 4.69603 3.62695 4.69037 3.61887C4.68471 3.61079 4.68107 3.60148 4.67974 3.5917C4.6784 3.58193 4.67942 3.57198 4.68271 3.56268L5.93443 0.0540116C5.93875 0.0418021 5.94678 0.0312525 5.9574 0.0238429C5.96802 0.0164333 5.9807 0.0125356 5.99364 0.0127003Z" fill="white"/>
  <path d="M12.5139 0.0121185L18.4475 0.0107422C18.4686 0.0107625 18.489 0.018235 18.5051 0.0318401C18.5212 0.0454453 18.532 0.0643076 18.5356 0.0851008L19.125 3.66951C19.127 3.68225 19.1262 3.69526 19.1227 3.70767C19.1192 3.72007 19.113 3.73157 19.1046 3.74138C19.0963 3.75118 19.0859 3.75907 19.0742 3.76449C19.0625 3.76991 19.0497 3.77274 19.0369 3.77278L13.1005 3.71908C13.0792 3.719 13.0586 3.71134 13.0425 3.69746C13.0263 3.68357 13.0156 3.66439 13.0124 3.64334L12.4257 0.116774C12.4235 0.103933 12.4242 0.0907645 12.4276 0.07819C12.431 0.0656155 12.4371 0.0539384 12.4455 0.0439723C12.4539 0.0340063 12.4644 0.0259911 12.4762 0.0204896C12.488 0.014988 12.5008 0.012131 12.5139 0.0121185Z" fill="white"/>
  <path d="M39.2158 0.00781383L45.8366 0.017454C45.8582 0.0174271 45.8791 0.0249953 45.8958 0.0388377C45.9124 0.0526802 45.9236 0.071918 45.9275 0.093191L46.6229 3.87313C46.6253 3.88644 46.6248 3.90011 46.6213 3.91319C46.6179 3.92627 46.6116 3.93843 46.6029 3.94881C46.5942 3.95919 46.5834 3.96753 46.5711 3.97326C46.5589 3.97898 46.5455 3.98193 46.532 3.98192L35.8669 3.88828C35.8491 3.88811 35.8317 3.8828 35.8169 3.873C35.8021 3.86319 35.7904 3.8493 35.7832 3.833C35.7761 3.8167 35.7739 3.79869 35.7767 3.78114C35.7796 3.76358 35.7875 3.74723 35.7994 3.73405L39.147 0.0381086C39.1557 0.0285062 39.1663 0.0208458 39.1782 0.015626C39.19 0.0104063 39.2029 0.00774411 39.2158 0.00781383Z" fill="white"/>
  <path d="M65.3945 4.11153L54.5724 4.04406C54.5582 4.0438 54.5443 4.04016 54.5317 4.03344C54.5192 4.02671 54.5084 4.01709 54.5004 4.00538C54.4923 3.99367 54.4871 3.9802 54.4853 3.96609C54.4834 3.95198 54.485 3.93764 54.4898 3.92426L55.8572 0.0754627C55.8634 0.05816 55.8748 0.043193 55.8899 0.0325986C55.9049 0.0220043 55.9228 0.0162957 55.9412 0.0162494L63.6071 0.0107422C63.6242 0.0107757 63.641 0.0157234 63.6554 0.0249987C63.6698 0.034274 63.6812 0.047488 63.6884 0.0630699L65.4771 3.98485C65.4834 3.99857 65.4861 4.01366 65.485 4.02871C65.4838 4.04376 65.4789 4.05829 65.4707 4.07093C65.4624 4.08357 65.4511 4.09392 65.4378 4.10102C65.4245 4.10812 65.4096 4.11173 65.3945 4.11153Z" fill="white"/>
  <path d="M72.7809 0.0133224L78.2766 0.00781308C78.2921 0.00775916 78.3075 0.0114595 78.3212 0.0185984C78.335 0.0257373 78.3469 0.0361042 78.3558 0.0488155C78.3648 0.0615268 78.3705 0.0762055 78.3725 0.0916039C78.3745 0.107002 78.3728 0.122664 78.3675 0.137254L76.9409 4.12926C76.9342 4.14836 76.9218 4.16489 76.9052 4.17651C76.8886 4.18812 76.8689 4.19423 76.8486 4.19398L71.3667 4.16782C71.3513 4.16779 71.3362 4.16409 71.3225 4.15703C71.3089 4.14996 71.2971 4.13974 71.2882 4.12721C71.2793 4.11468 71.2736 4.1002 71.2714 4.08499C71.2692 4.06978 71.2708 4.05426 71.2758 4.03975L72.69 0.0766645C72.6968 0.058042 72.7092 0.0419692 72.7254 0.030634C72.7417 0.0192988 72.7611 0.0132536 72.7809 0.0133224Z" fill="white"/>
  <path d="M90.9122 0.0881508C90.9194 0.067299 90.9331 0.0492001 90.9513 0.0363672C90.9696 0.0235344 90.9915 0.0166047 91.0141 0.0165447C95.193 0.00920058 99.3557 0.00782372 103.502 0.0124138C105.659 0.0137908 108.759 0.0234314 109.012 2.87113C109.057 3.3742 109.033 3.87314 108.942 4.36795C108.937 4.3919 108.925 4.4136 108.906 4.42922C108.888 4.44483 108.864 4.45337 108.84 4.45333L89.4994 4.31425C89.4333 4.31333 89.4113 4.28166 89.4333 4.21923L90.9122 0.0881508Z" fill="white"/>
  <path d="M112.163 0.00976562L130.301 0.0111419C130.318 0.0112469 130.334 0.0154124 130.349 0.0232909C130.364 0.0311694 130.377 0.042531 130.387 0.0564223C130.397 0.0703136 130.403 0.0863299 130.405 0.103129C130.407 0.119929 130.406 0.137022 130.4 0.152976L128.836 4.5333C128.828 4.55398 128.814 4.57184 128.796 4.58442C128.778 4.597 128.757 4.60368 128.735 4.60353L110.641 4.47547C110.624 4.47536 110.607 4.4712 110.592 4.46332C110.577 4.45544 110.564 4.44408 110.555 4.43019C110.545 4.4163 110.539 4.40028 110.536 4.38348C110.534 4.36668 110.536 4.34959 110.542 4.33363L112.063 0.0799933C112.071 0.059538 112.084 0.0418321 112.102 0.0292709C112.12 0.0167097 112.141 0.00990056 112.163 0.00976562Z" fill="white"/>
  <path d="M137.602 0.147069L136.01 4.57697C136.003 4.5968 135.99 4.61394 135.972 4.62602C135.955 4.63811 135.935 4.64454 135.913 4.64444L130.44 4.6169C130.424 4.61676 130.408 4.61272 130.393 4.60513C130.379 4.59754 130.366 4.58662 130.357 4.57327C130.348 4.55992 130.342 4.54454 130.34 4.52842C130.338 4.51229 130.339 4.49589 130.345 4.48058L131.91 0.0795936C131.918 0.0599813 131.93 0.0429971 131.947 0.0309324C131.964 0.0188677 131.985 0.0123015 132.005 0.0121185L137.507 0.0107422C137.523 0.0108847 137.539 0.0149203 137.553 0.0225109C137.568 0.0301015 137.58 0.0410268 137.589 0.0543731C137.599 0.0677195 137.605 0.0830983 137.607 0.0992249C137.609 0.115351 137.607 0.131757 137.602 0.147069Z" fill="white"/>
  <path d="M160.407 0.184247L158.778 4.75323C158.769 4.77838 158.752 4.80009 158.73 4.81537C158.708 4.83066 158.682 4.83878 158.655 4.8386L153.227 4.79454C153.206 4.79438 153.186 4.78931 153.168 4.77976C153.15 4.7702 153.134 4.75644 153.122 4.73961C153.11 4.72278 153.103 4.70337 153.1 4.68299C153.097 4.66261 153.099 4.64184 153.106 4.62241L154.714 0.0988719C154.723 0.0739445 154.74 0.0523894 154.761 0.0371204C154.783 0.0218514 154.809 0.0136056 154.835 0.0134968L160.285 0.0107422C160.306 0.0108272 160.327 0.015898 160.345 0.0255261C160.363 0.0351541 160.379 0.049058 160.391 0.0660662C160.403 0.0830744 160.411 0.102689 160.413 0.123256C160.416 0.143824 160.414 0.16474 160.407 0.184247Z" fill="white"/>
  <path d="M192.398 10.9986L196.31 0.045745C196.313 0.0364338 196.32 0.0283963 196.328 0.0227287C196.336 0.0170611 196.345 0.0140396 196.355 0.014074L201.952 0.0126956C201.959 0.0126686 201.967 0.0145199 201.974 0.0180893C201.981 0.0216588 201.987 0.0268411 201.991 0.0331968C201.996 0.0395525 201.999 0.0468918 202 0.054591C202.001 0.0622902 202 0.070121 201.997 0.0774161L196.05 16.7422C196.046 16.7515 196.04 16.7596 196.032 16.7652C196.024 16.7709 196.014 16.7739 196.004 16.7739L188.374 16.7753C188.365 16.7751 188.356 16.7724 188.349 16.7676C188.341 16.7627 188.335 16.7558 188.331 16.7477L183.195 5.85267C183.191 5.8443 183.184 5.83732 183.176 5.83258C183.168 5.82784 183.159 5.82555 183.15 5.82599C183.14 5.82643 183.131 5.82957 183.124 5.83504C183.116 5.84052 183.11 5.84808 183.107 5.8568L179.227 16.745C179.223 16.7543 179.217 16.7623 179.209 16.768C179.201 16.7736 179.191 16.7767 179.181 16.7766L173.585 16.7642C173.577 16.7643 173.569 16.7624 173.563 16.7589C173.556 16.7553 173.55 16.7501 173.545 16.7437C173.541 16.7374 173.538 16.73 173.537 16.7223C173.536 16.7146 173.537 16.7068 173.539 16.6995L179.484 0.0443688C179.487 0.0350575 179.494 0.0270201 179.502 0.0213525C179.51 0.0156848 179.52 0.0126612 179.529 0.0126956H187.238C187.247 0.012856 187.256 0.0155201 187.263 0.0203859C187.271 0.0252518 187.277 0.0321277 187.281 0.0402378L192.308 11.0028C192.312 11.0116 192.319 11.019 192.327 11.024C192.335 11.0291 192.345 11.0315 192.354 11.0311C192.364 11.0306 192.373 11.0273 192.381 11.0215C192.389 11.0157 192.395 11.0078 192.398 10.9986ZM178.577 5.03059C179.939 5.08842 181.288 5.0875 182.625 5.02783C182.721 5.02324 182.721 5.02049 182.625 5.01957C181.127 5.00488 179.615 4.98973 178.09 4.97413C178.075 4.97413 178.062 4.97688 178.053 4.98239C178.04 4.99157 178.029 5.00213 178.023 5.01406C178.007 5.04436 178.017 5.0618 178.051 5.06639C178.227 5.08705 178.417 5.02508 178.577 5.03059Z" fill="white"/>
  <path d="M178.577 5.03009C178.417 5.02458 178.227 5.08655 178.051 5.0659C178.017 5.06131 178.007 5.04386 178.023 5.01357C178.029 5.00163 178.04 4.99108 178.053 4.9819C178.062 4.97639 178.075 4.97363 178.09 4.97363C179.615 4.98924 181.127 5.00439 182.625 5.01907C182.721 5.01999 182.721 5.02275 182.625 5.02734C181.288 5.08701 179.939 5.08793 178.577 5.03009Z" fill="white"/>
  <path d="M166.417 16.7063L170.536 5.15304C170.539 5.14468 170.544 5.13741 170.551 5.13223C170.559 5.12705 170.567 5.12422 170.576 5.12412L176.212 5.11035C176.219 5.11035 176.226 5.11202 176.232 5.11523C176.238 5.11845 176.243 5.1231 176.247 5.12879C176.251 5.13447 176.254 5.14103 176.255 5.1479C176.255 5.15476 176.255 5.16172 176.252 5.16819L172.121 16.7504C172.118 16.7587 172.113 16.766 172.106 16.7712C172.099 16.7764 172.09 16.7792 172.081 16.7793L166.457 16.7628C166.451 16.7627 166.444 16.761 166.438 16.7579C166.432 16.7547 166.427 16.7502 166.423 16.7447C166.419 16.7392 166.417 16.7329 166.416 16.7262C166.415 16.7195 166.415 16.7127 166.417 16.7063Z" fill="white"/>
  <path d="M166.797 12.2525L165.203 16.7141C165.196 16.7322 165.184 16.7479 165.169 16.759C165.153 16.7701 165.134 16.776 165.115 16.776L148.903 16.7719C148.888 16.7719 148.873 16.7683 148.86 16.7614C148.847 16.7545 148.835 16.7444 148.826 16.7321C148.818 16.7199 148.812 16.7057 148.81 16.6908C148.808 16.6759 148.81 16.6607 148.815 16.6466L152.87 5.27235C152.877 5.2542 152.889 5.23851 152.904 5.22742C152.92 5.21633 152.939 5.21038 152.958 5.21038L158.495 5.17871C158.51 5.17879 158.525 5.1824 158.538 5.18924C158.551 5.19609 158.563 5.20597 158.571 5.21808C158.58 5.23019 158.585 5.24418 158.588 5.25888C158.59 5.27358 158.588 5.28858 158.583 5.30264L156.185 12.0074C156.18 12.0215 156.178 12.0367 156.18 12.0516C156.182 12.0665 156.188 12.0806 156.196 12.0929C156.205 12.1052 156.216 12.1152 156.23 12.1222C156.243 12.1291 156.258 12.1327 156.273 12.1327L166.709 12.1272C166.724 12.1272 166.739 12.1308 166.752 12.1377C166.766 12.1447 166.777 12.1547 166.786 12.167C166.795 12.1793 166.8 12.1934 166.802 12.2083C166.804 12.2232 166.803 12.2384 166.797 12.2525Z" fill="white"/>
  <path d="M141.298 8.50899L148.256 16.6293C148.265 16.6403 148.271 16.6539 148.274 16.6683C148.276 16.6827 148.273 16.6974 148.267 16.7106C148.261 16.7239 148.251 16.735 148.239 16.7428C148.227 16.7506 148.213 16.7547 148.198 16.7546C145.802 16.7785 143.389 16.7863 140.959 16.778C140.66 16.7762 140.416 16.6628 140.228 16.4379C138.689 14.5909 137.135 12.7337 135.566 10.8665C135.527 10.8195 135.478 10.7818 135.423 10.7561C135.368 10.7304 135.308 10.7173 135.247 10.7177L133.947 10.7288C133.91 10.7287 133.874 10.7401 133.844 10.7616C133.813 10.7831 133.79 10.8134 133.778 10.8486L131.714 16.639C131.699 16.6792 131.673 16.7139 131.638 16.7383C131.603 16.7627 131.562 16.7757 131.519 16.7753L126.054 16.7656C125.987 16.7656 125.964 16.7344 125.987 16.672L130.031 5.35559C130.035 5.34393 130.042 5.33381 130.052 5.32665C130.062 5.31949 130.074 5.31565 130.086 5.31566L135.565 5.29087C135.589 5.29099 135.612 5.29709 135.633 5.30861C135.654 5.32012 135.672 5.33667 135.685 5.35672C135.698 5.37678 135.705 5.39969 135.706 5.42332C135.708 5.44696 135.703 5.47055 135.693 5.49192C135.633 5.6186 135.599 5.7508 135.593 5.8885C135.59 5.9344 135.612 5.95873 135.659 5.96148C136.17 5.9904 136.798 6.03171 137.191 5.7384C137.532 5.48365 137.856 5.27985 138.308 5.27985C140.656 5.27985 143.042 5.34458 145.386 5.23854C145.627 5.22753 145.648 5.28995 145.449 5.42582L141.331 8.2501C141.224 8.32355 141.213 8.40984 141.298 8.50899Z" fill="white"/>
  <path d="M126.267 12.2319L124.68 16.7224C124.674 16.7375 124.664 16.7506 124.651 16.76C124.638 16.7694 124.623 16.7745 124.607 16.7747L106.208 16.7733C106.196 16.7734 106.183 16.7704 106.172 16.7647C106.161 16.7589 106.151 16.7505 106.144 16.7403C106.137 16.73 106.132 16.7182 106.13 16.7057C106.128 16.6932 106.13 16.6805 106.134 16.6687L110.14 5.47755C110.145 5.46241 110.155 5.44928 110.168 5.43992C110.181 5.43057 110.197 5.42544 110.213 5.42523L115.746 5.39356C115.758 5.3935 115.771 5.39647 115.782 5.40222C115.793 5.40796 115.803 5.41632 115.81 5.42658C115.817 5.43684 115.822 5.44871 115.824 5.46117C115.825 5.47364 115.824 5.48634 115.82 5.49821L115.56 6.23767C115.555 6.24954 115.554 6.26224 115.556 6.27471C115.558 6.28718 115.562 6.29904 115.57 6.3093C115.577 6.31956 115.587 6.32792 115.598 6.33367C115.609 6.33941 115.621 6.34239 115.634 6.34233L127.344 6.33544C127.357 6.33538 127.369 6.33836 127.38 6.34411C127.392 6.34985 127.401 6.35821 127.409 6.36847C127.416 6.37873 127.421 6.3906 127.422 6.40306C127.424 6.41553 127.423 6.42823 127.419 6.4401L126.004 10.4101C125.999 10.4252 125.989 10.4383 125.976 10.4477C125.963 10.4571 125.947 10.4622 125.931 10.4624L114.11 10.4541C114.093 10.4541 114.077 10.4591 114.064 10.4684C114.051 10.4778 114.041 10.4911 114.035 10.5065L113.509 12.0253C113.505 12.0372 113.504 12.0499 113.506 12.0624C113.507 12.0748 113.512 12.0867 113.519 12.0969C113.527 12.1072 113.536 12.1156 113.547 12.1213C113.559 12.1271 113.571 12.13 113.584 12.13L126.193 12.1272C126.206 12.1272 126.218 12.1301 126.229 12.1359C126.24 12.1416 126.25 12.15 126.257 12.1603C126.265 12.1705 126.269 12.1824 126.271 12.1948C126.273 12.2073 126.272 12.22 126.267 12.2319Z" fill="white"/>
  <path d="M93.8233 7.99367C93.821 7.99979 93.8203 8.00637 93.8212 8.01283C93.822 8.01929 93.8245 8.02544 93.8283 8.03074C93.8321 8.03604 93.8371 8.04033 93.843 8.04322C93.8488 8.04612 93.8553 8.04755 93.8618 8.04737C96.1738 8.02534 98.4817 8.07216 100.788 8.00193C102.061 7.96337 102.643 6.58634 102.811 5.53016C102.818 5.4861 102.843 5.46407 102.888 5.46407L108.596 5.43652C108.607 5.43657 108.617 5.43902 108.626 5.44369C108.636 5.44836 108.644 5.45511 108.65 5.4634C108.656 5.47169 108.661 5.4813 108.663 5.49146C108.664 5.50162 108.664 5.51204 108.661 5.5219C108.135 7.33545 107.219 9.5084 105.985 10.8221C104.787 12.0954 103.237 12.7462 101.334 12.7747C98.7659 12.8133 95.7116 12.8105 92.1708 12.7664C92.1286 12.7655 92.1006 12.7853 92.0868 12.8257L90.7208 16.6951C90.7128 16.718 90.6979 16.7378 90.6782 16.7519C90.6585 16.7659 90.6349 16.7735 90.6107 16.7736L85.0502 16.7653C84.9859 16.7653 84.9644 16.735 84.9855 16.6745L88.9389 5.61278C88.9471 5.58943 88.9623 5.56914 88.9825 5.55461C89.0026 5.54009 89.0269 5.53204 89.0519 5.53154L94.5283 5.49436C94.5484 5.49412 94.5683 5.49873 94.5863 5.50781C94.6043 5.51689 94.6198 5.53016 94.6315 5.54651C94.6433 5.56285 94.6509 5.58179 94.6538 5.60172C94.6567 5.62164 94.6547 5.64197 94.6481 5.66098L93.8233 7.99367Z" fill="white"/>
  <path d="M68.7999 10.9916L70.6424 5.79746C70.6828 5.68546 70.7622 5.629 70.8806 5.62808L76.2689 5.60743C76.2856 5.60728 76.3021 5.6112 76.317 5.61884C76.3319 5.62648 76.3447 5.63762 76.3543 5.6513C76.3639 5.66499 76.3701 5.6808 76.3722 5.69738C76.3744 5.71396 76.3725 5.73082 76.3667 5.7465L72.4669 16.6608C72.4583 16.6842 72.443 16.7044 72.4229 16.7191C72.4028 16.7338 72.3789 16.7423 72.354 16.7435C70.1218 16.8316 67.8704 16.7682 65.6355 16.7737C65.3537 16.7747 65.0782 16.7614 64.8093 16.7338C64.781 16.7308 64.7539 16.7207 64.7305 16.7043C64.7072 16.6879 64.6883 16.6659 64.6757 16.6402L59.6867 6.06735C59.5637 5.80755 59.4673 5.81673 59.3975 6.09489C59.3691 6.20597 59.3168 6.36938 59.2406 6.58512C58.1601 9.62651 57.0727 12.6652 55.9784 15.701C55.8609 16.0288 55.753 16.3606 55.6548 16.6966C55.641 16.7444 55.6116 16.7682 55.5667 16.7682L49.9897 16.771C49.9797 16.7709 49.9698 16.7684 49.9609 16.7637C49.952 16.7591 49.9444 16.7523 49.9386 16.7441C49.9328 16.7359 49.9291 16.7265 49.9276 16.7165C49.9262 16.7066 49.9272 16.6965 49.9305 16.687L53.8178 5.79746C53.8264 5.77363 53.8421 5.75302 53.8628 5.73848C53.8835 5.72393 53.9082 5.71615 53.9335 5.71621L66.1257 5.66113C66.2102 5.66113 66.2698 5.69923 66.3047 5.77542L68.698 10.9971C68.7356 11.0797 68.7696 11.0779 68.7999 10.9916Z" fill="white"/>
  <path d="M41.5788 9.48676C41.6357 9.48676 41.6587 9.45876 41.6476 9.40276L40.977 5.9354C40.974 5.91917 40.9746 5.90248 40.9787 5.8865C40.9829 5.87051 40.9904 5.85563 41.0009 5.8429C41.0114 5.83016 41.0246 5.81988 41.0395 5.81279C41.0544 5.80569 41.0707 5.80195 41.0872 5.80183L46.8996 5.76465C46.9455 5.76465 46.9726 5.78714 46.9809 5.83212L48.9376 16.6872C48.9392 16.6969 48.9388 16.7068 48.9363 16.7162C48.9337 16.7256 48.9293 16.7343 48.9231 16.7418C48.9169 16.7493 48.9093 16.7553 48.9006 16.7594C48.8919 16.7635 48.8825 16.7657 48.8729 16.7657L42.8828 16.7795C42.836 16.7795 42.8076 16.7565 42.7975 16.7106L42.2591 14.2953C42.2333 14.176 42.159 14.1168 42.036 14.1177C39.3599 14.1241 36.6578 14.1186 33.9294 14.1012C33.621 14.0984 33.3157 14.1246 33.0137 14.1797C32.7741 14.2237 32.6625 14.3628 32.5056 14.5267C31.8923 15.173 31.2814 15.8211 30.6727 16.471C30.3505 16.8153 30.0999 16.7781 29.6606 16.7767C27.8411 16.7722 26.0124 16.7648 24.1745 16.7547C24.1654 16.7546 24.1564 16.7524 24.1482 16.7483C24.1401 16.7442 24.133 16.7383 24.1275 16.7311C24.122 16.7239 24.1183 16.7156 24.1167 16.7068C24.1151 16.698 24.1155 16.6889 24.1181 16.6803C24.1263 16.6519 24.1447 16.6221 24.1732 16.5908C27.3403 13.0904 30.5052 9.58866 33.6678 6.0855C33.8174 5.92025 34.0194 5.83625 34.2737 5.8335C35.8802 5.81514 37.4867 5.80504 39.0933 5.80321C39.3852 5.80321 39.6262 5.79494 39.8162 5.77842C40.0576 5.75822 40.0976 5.83809 39.936 6.01802L36.952 9.33115C36.8528 9.44131 36.8772 9.49593 37.025 9.49502L41.5788 9.48676Z" fill="white"/>
  <path d="M20.3409 10.9194C20.3565 11.0139 20.3964 11.0254 20.4607 10.9538C21.9341 9.32981 23.4135 7.7095 24.8989 6.09287C25.0558 5.92075 25.3615 5.86153 25.619 5.85878C27.5469 5.8294 29.4646 5.82114 31.3723 5.83399C31.3841 5.83429 31.3957 5.83794 31.4056 5.84451C31.4155 5.85108 31.4233 5.86029 31.4281 5.87104C31.4329 5.88179 31.4345 5.89362 31.4326 5.90512C31.4308 5.91662 31.4256 5.9273 31.4177 5.93589C28.2634 9.44915 25.1201 12.972 21.9878 16.5046C21.8336 16.679 21.6371 16.7667 21.3984 16.7676C19.5055 16.7768 17.5318 16.7777 15.4772 16.7703C15.3661 16.7703 15.3014 16.7162 15.2831 16.6079C14.6965 13.247 14.0961 9.85032 13.4819 6.41785C13.4562 6.2774 13.4342 6.17182 13.4158 6.10114C13.3855 5.98547 13.43 5.92763 13.5494 5.92763L19.3604 5.90422C19.4022 5.9037 19.4428 5.91827 19.4749 5.9453C19.507 5.97233 19.5284 6.01002 19.5353 6.05156L20.3409 10.9194Z" fill="white"/>
  <path d="M9.50646 6.07563L5.70724 16.7201C5.70129 16.7369 5.69029 16.7515 5.67575 16.7618C5.66122 16.7722 5.64384 16.7778 5.62599 16.7779L0.0862062 16.7683C0.0723737 16.7682 0.058763 16.7648 0.0465086 16.7584C0.0342543 16.7519 0.0237127 16.7427 0.0157621 16.7314C0.00781146 16.7201 0.00268246 16.707 0.000803814 16.6933C-0.00107483 16.6796 0.000350852 16.6656 0.00496205 16.6526L3.7973 6.03708C3.80325 6.02025 3.81424 6.00567 3.82878 5.99532C3.84332 5.98497 3.8607 5.97936 3.87854 5.97924L9.42383 5.95996C9.43778 5.95983 9.45156 5.96306 9.46399 5.96939C9.47643 5.97571 9.48715 5.98494 9.49526 5.99629C9.50337 6.00764 9.50862 6.02078 9.51057 6.03459C9.51252 6.04841 9.51111 6.06248 9.50646 6.07563Z" fill="white"/>
</svg>