<svg width="23" height="23" viewBox="0 0 23 23" fill="none" xmlns="http://www.w3.org/2000/svg">
<path d="M15.1427 18.7668C15.4836 18.44 15.5066 17.8859 15.1941 17.5293L10.054 11.6644L15.1941 5.79952C15.4806 5.47264 15.4851 4.97983 15.2213 4.64818L15.1427 4.56198C14.8018 4.2351 14.2721 4.25919 13.9596 4.61578L8.30164 11.0725C8.29803 11.0767 8.29446 11.0808 8.29094 11.085L8.35307 11.0187C8.31474 11.0555 8.28042 11.0951 8.25015 11.137C8.23902 11.1526 8.22843 11.1683 8.21839 11.1843C8.20815 11.2005 8.19841 11.2172 8.18926 11.2342C8.18095 11.2497 8.17323 11.265 8.16599 11.2806C8.15744 11.2989 8.14939 11.3179 8.14201 11.3371C8.13544 11.3541 8.12941 11.3713 8.12392 11.3886C8.11855 11.4058 8.11369 11.4229 8.10934 11.4402C8.10443 11.4594 8.10021 11.4788 8.09663 11.4982C8.09302 11.5183 8.09001 11.5384 8.08766 11.5586C8.08591 11.5733 8.08455 11.5883 8.08356 11.6033C8.08222 11.6239 8.08154 11.6444 8.08154 11.6649C8.08156 11.685 8.08224 11.7052 8.08358 11.7254C8.08455 11.7405 8.08591 11.7555 8.08764 11.7704C8.09001 11.7904 8.09302 11.8106 8.0967 11.8306C8.10021 11.85 8.10443 11.8694 8.10928 11.8887C8.11369 11.9059 8.11855 11.923 8.12392 11.94C8.12941 11.9576 8.13544 11.9748 8.14199 11.9918C8.14939 12.011 8.15744 12.0299 8.16616 12.0486C8.17323 12.0638 8.18095 12.0792 8.18913 12.0943C8.19841 12.1116 8.20815 12.1283 8.21846 12.1448C8.22843 12.1605 8.23902 12.1762 8.25017 12.1917C8.28042 12.2337 8.31474 12.2733 8.35307 12.3101L8.29094 12.2438C8.29446 12.248 8.29803 12.2522 8.30164 12.2563L13.9596 18.713C14.2721 19.0696 14.8018 19.0937 15.1427 18.7668Z" fill="white"/>
</svg>
